<svg width="185" height="177" viewBox="0 0 185 177" fill="none" xmlns="http://www.w3.org/2000/svg">
<path d="M88.5247 20.0624C88.3557 22.5125 87.6415 24.4147 86.9228 26.907C79.0059 54.3607 71.205 81.8718 62.348 109.041C56.64 126.551 53.3432 135.644 46.9843 152.402C44.1797 159.793 41.9331 167.477 38.101 174.392C36.0674 178.061 39.7151 166.145 40.9043 162.122C46.2017 144.203 50.4798 131.249 56.8142 112.973C67.197 83.0172 78.3057 53.308 89.8353 23.776C91.9599 18.3341 97.1359 1.79333 96.607 7.61126C95.9391 14.958 92.3097 21.7274 89.9809 28.7273C73.8729 77.1448 56.4834 125.171 38.0646 172.753" stroke="#5162FF" stroke-width="3" stroke-linecap="round"/>
<path d="M49.8608 24.6494C50.9868 22.1721 56.5864 20.9249 58.38 20.3534C87.0304 11.2246 117.139 3.61581 147.286 2.29551C150.791 2.142 191.832 -0.334418 181.872 12.271C171.939 24.8437 156.313 34.7125 143.572 43.8723C127.303 55.5691 110.587 66.6385 93.6219 77.2939C89.5729 79.837 85.3885 82.1743 81.462 84.9029C75.4714 89.0659 94.1362 77.6677 100.321 73.7988C125.769 57.8789 152.828 42.3192 176.047 23.1567C192.511 9.56892 151.438 8.68617 146.485 8.55751C105.867 7.50251 65.8118 16.7408 26.269 24.6494" stroke="#5162FF" stroke-width="3" stroke-linecap="round"/>
<path d="M41.0138 166.527C41.0138 165.74 41.1222 164.858 40.941 164.088C39.3809 157.458 35.5752 150.308 33.2227 144.101C26.1707 125.494 19.8218 106.627 12.5435 88.1066C9.56485 80.527 6.23474 73.0763 3.73304 65.3159C1.96936 59.8449 0.465472 52.7117 4.97087 64.5149C16.3901 94.431 28.8804 126.204 32.4945 158.008" stroke="#5162FF" stroke-width="3" stroke-linecap="round"/>
<path d="M122.602 160.957C122.602 159.709 122.056 159.292 121.291 158.336" stroke="#5162FF" stroke-width="3" stroke-linecap="round"/>
</svg>
